# Blender 3.5.1
# www.blender.org
mtllib level_four.mtl
o Collect_Boob
v 1.233378 1.291327 28.074289
v 1.233378 0.791327 28.074289
v 1.233378 1.291327 28.574289
v 1.233378 0.791327 28.574289
v 0.733378 1.291327 28.074289
v 0.733378 0.791327 28.074289
v 0.733378 1.291327 28.574289
v 0.733378 0.791327 28.574289
vn -0.0000 1.0000 -0.0000
vn -0.0000 -0.0000 1.0000
vn -1.0000 -0.0000 -0.0000
vn -0.0000 -1.0000 -0.0000
vn 1.0000 -0.0000 -0.0000
vn -0.0000 -0.0000 -1.0000
vt 0.625000 0.500000
vt 0.375000 0.500000
vt 0.625000 0.750000
vt 0.375000 0.750000
vt 0.875000 0.500000
vt 0.625000 0.250000
vt 0.125000 0.500000
vt 0.375000 0.250000
vt 0.875000 0.750000
vt 0.625000 1.000000
vt 0.625000 0.000000
vt 0.375000 1.000000
vt 0.375000 0.000000
vt 0.125000 0.750000
s 0
usemtl Material.003
f 1/1/1 5/5/1 7/9/1 3/3/1
f 4/4/2 3/3/2 7/10/2 8/12/2
f 8/13/3 7/11/3 5/6/3 6/8/3
f 6/7/4 2/2/4 4/4/4 8/14/4
f 2/2/5 1/1/5 3/3/5 4/4/5
f 6/8/6 5/6/6 1/1/6 2/2/6
o Player
v 0.367788 1.687147 17.099545
v 0.367788 1.187147 17.099545
v 0.367788 1.687147 17.599545
v 0.367788 1.187147 17.599545
v -0.132212 1.687147 17.099545
v -0.132212 1.187147 17.099545
v -0.132212 1.687147 17.599545
v -0.132212 1.187147 17.599545
vn -0.0000 1.0000 -0.0000
vn -0.0000 -0.0000 1.0000
vn -1.0000 -0.0000 -0.0000
vn -0.0000 -1.0000 -0.0000
vn 1.0000 -0.0000 -0.0000
vn -0.0000 -0.0000 -1.0000
vt 0.625000 0.500000
vt 0.375000 0.500000
vt 0.625000 0.750000
vt 0.375000 0.750000
vt 0.875000 0.500000
vt 0.625000 0.250000
vt 0.125000 0.500000
vt 0.375000 0.250000
vt 0.875000 0.750000
vt 0.625000 1.000000
vt 0.625000 0.000000
vt 0.375000 1.000000
vt 0.375000 0.000000
vt 0.125000 0.750000
s 0
usemtl Material.004
f 9/15/7 13/19/7 15/23/7 11/17/7
f 12/18/8 11/17/8 15/24/8 16/26/8
f 16/27/9 15/25/9 13/20/9 14/22/9
f 14/21/10 10/16/10 12/18/10 16/28/10
f 10/16/11 9/15/11 11/17/11 12/18/11
f 14/22/12 13/20/12 9/15/12 10/16/12
o Collect_Sword
v 4.145236 8.976013 -10.254681
v 4.145236 8.476013 -10.254681
v 4.145236 8.976013 -9.754681
v 4.145236 8.476013 -9.754681
v 3.645236 8.976013 -10.254681
v 3.645236 8.476013 -10.254681
v 3.645236 8.976013 -9.754681
v 3.645236 8.476013 -9.754681
vn -0.0000 1.0000 -0.0000
vn -0.0000 -0.0000 1.0000
vn -1.0000 -0.0000 -0.0000
vn -0.0000 -1.0000 -0.0000
vn 1.0000 -0.0000 -0.0000
vn -0.0000 -0.0000 -1.0000
vt 0.625000 0.500000
vt 0.375000 0.500000
vt 0.625000 0.750000
vt 0.375000 0.750000
vt 0.875000 0.500000
vt 0.625000 0.250000
vt 0.125000 0.500000
vt 0.375000 0.250000
vt 0.875000 0.750000
vt 0.625000 1.000000
vt 0.625000 0.000000
vt 0.375000 1.000000
vt 0.375000 0.000000
vt 0.125000 0.750000
s 0
usemtl Material.005
f 17/29/13 21/33/13 23/37/13 19/31/13
f 20/32/14 19/31/14 23/38/14 24/40/14
f 24/41/15 23/39/15 21/34/15 22/36/15
f 22/35/16 18/30/16 20/32/16 24/42/16
f 18/30/17 17/29/17 19/31/17 20/32/17
f 22/36/18 21/34/18 17/29/18 18/30/18
o ExitDoor
v 4.655980 5.008137 9.811318
v 4.655980 2.008137 9.811318
v 4.655980 5.008137 10.311318
v 4.655980 2.008137 10.311318
v 2.405980 5.008137 9.811318
v 2.405980 2.008137 9.811318
v 2.405980 5.008137 10.311318
v 2.405980 2.008137 10.311318
vn -0.0000 1.0000 -0.0000
vn -0.0000 -0.0000 1.0000
vn -1.0000 -0.0000 -0.0000
vn -0.0000 -1.0000 -0.0000
vn 1.0000 -0.0000 -0.0000
vn -0.0000 -0.0000 -1.0000
vt 0.625000 0.500000
vt 0.375000 0.500000
vt 0.625000 0.750000
vt 0.375000 0.750000
vt 0.875000 0.500000
vt 0.625000 0.250000
vt 0.125000 0.500000
vt 0.375000 0.250000
vt 0.875000 0.750000
vt 0.625000 1.000000
vt 0.625000 0.000000
vt 0.375000 1.000000
vt 0.375000 0.000000
vt 0.125000 0.750000
s 0
usemtl Material.014
f 25/43/19 29/47/19 31/51/19 27/45/19
f 28/46/20 27/45/20 31/52/20 32/54/20
f 32/55/21 31/53/21 29/48/21 30/50/21
f 30/49/22 26/44/22 28/46/22 32/56/22
f 26/44/23 25/43/23 27/45/23 28/46/23
f 30/50/24 29/48/24 25/43/24 26/44/24
o Cube.002
v 5.472875 1.087041 16.062040
v 5.472875 0.587041 16.062040
v 5.472875 1.087041 17.917112
v 5.472875 0.587041 17.917112
v -5.498415 1.087041 16.062040
v -5.498415 0.587041 16.062040
v -5.498415 1.087041 17.917112
v -5.498415 0.587041 17.917112
vn -0.0000 1.0000 -0.0000
vn -0.0000 -0.0000 1.0000
vn -1.0000 -0.0000 -0.0000
vn -0.0000 -1.0000 -0.0000
vn 1.0000 -0.0000 -0.0000
vn -0.0000 -0.0000 -1.0000
vt 0.625000 0.500000
vt 0.375000 0.500000
vt 0.625000 0.750000
vt 0.375000 0.750000
vt 0.875000 0.500000
vt 0.625000 0.250000
vt 0.125000 0.500000
vt 0.375000 0.250000
vt 0.875000 0.750000
vt 0.625000 1.000000
vt 0.625000 0.000000
vt 0.375000 1.000000
vt 0.375000 0.000000
vt 0.125000 0.750000
s 0
usemtl Material.001
f 33/57/25 37/61/25 39/65/25 35/59/25
f 36/60/26 35/59/26 39/66/26 40/68/26
f 40/69/27 39/67/27 37/62/27 38/64/27
f 38/63/28 34/58/28 36/60/28 40/70/28
f 34/58/29 33/57/29 35/59/29 36/60/29
f 38/64/30 37/62/30 33/57/30 34/58/30
o Cube.005
v 2.470900 2.204985 -3.758770
v 2.470900 1.704985 -3.758770
v 2.470900 2.204985 -1.862927
v 2.470900 1.704985 -1.862927
v 0.173318 2.204985 -3.758770
v 0.173318 1.704985 -3.758770
v 0.173318 2.204985 -1.862927
v 0.173318 1.704985 -1.862927
vn -0.0000 1.0000 -0.0000
vn -0.0000 -0.0000 1.0000
vn -1.0000 -0.0000 -0.0000
vn -0.0000 -1.0000 -0.0000
vn 1.0000 -0.0000 -0.0000
vn -0.0000 -0.0000 -1.0000
vt 0.625000 0.500000
vt 0.375000 0.500000
vt 0.625000 0.750000
vt 0.375000 0.750000
vt 0.875000 0.500000
vt 0.625000 0.250000
vt 0.125000 0.500000
vt 0.375000 0.250000
vt 0.875000 0.750000
vt 0.625000 1.000000
vt 0.625000 0.000000
vt 0.375000 1.000000
vt 0.375000 0.000000
vt 0.125000 0.750000
s 0
usemtl Material.006
f 41/71/31 45/75/31 47/79/31 43/73/31
f 44/74/32 43/73/32 47/80/32 48/82/32
f 48/83/33 47/81/33 45/76/33 46/78/33
f 46/77/34 42/72/34 44/74/34 48/84/34
f 42/72/35 41/71/35 43/73/35 44/74/35
f 46/78/36 45/76/36 41/71/36 42/72/36
o Cube.006
v 5.088440 4.650709 -3.959334
v 5.088440 4.150709 -3.959334
v 5.088440 4.650709 -2.063492
v 5.088440 4.150709 -2.063492
v 2.790858 4.650709 -3.959334
v 2.790858 4.150709 -3.959334
v 2.790858 4.650709 -2.063492
v 2.790858 4.150709 -2.063492
vn -0.0000 1.0000 -0.0000
vn -0.0000 -0.0000 1.0000
vn -1.0000 -0.0000 -0.0000
vn -0.0000 -1.0000 -0.0000
vn 1.0000 -0.0000 -0.0000
vn -0.0000 -0.0000 -1.0000
vt 0.625000 0.500000
vt 0.375000 0.500000
vt 0.625000 0.750000
vt 0.375000 0.750000
vt 0.875000 0.500000
vt 0.625000 0.250000
vt 0.125000 0.500000
vt 0.375000 0.250000
vt 0.875000 0.750000
vt 0.625000 1.000000
vt 0.625000 0.000000
vt 0.375000 1.000000
vt 0.375000 0.000000
vt 0.125000 0.750000
s 0
usemtl Material.007
f 49/85/37 53/89/37 55/93/37 51/87/37
f 52/88/38 51/87/38 55/94/38 56/96/38
f 56/97/39 55/95/39 53/90/39 54/92/39
f 54/91/40 50/86/40 52/88/40 56/98/40
f 50/86/41 49/85/41 51/87/41 52/88/41
f 54/92/42 53/90/42 49/85/42 50/86/42
o Cube.007
v 5.088440 6.246923 -7.423666
v 5.088440 5.746923 -7.423666
v 5.088440 6.246923 -5.527824
v 5.088440 5.746923 -5.527824
v 2.790858 6.246923 -7.423666
v 2.790858 5.746923 -7.423666
v 2.790858 6.246923 -5.527824
v 2.790858 5.746923 -5.527824
vn -0.0000 1.0000 -0.0000
vn -0.0000 -0.0000 1.0000
vn -1.0000 -0.0000 -0.0000
vn -0.0000 -1.0000 -0.0000
vn 1.0000 -0.0000 -0.0000
vn -0.0000 -0.0000 -1.0000
vt 0.625000 0.500000
vt 0.375000 0.500000
vt 0.625000 0.750000
vt 0.375000 0.750000
vt 0.875000 0.500000
vt 0.625000 0.250000
vt 0.125000 0.500000
vt 0.375000 0.250000
vt 0.875000 0.750000
vt 0.625000 1.000000
vt 0.625000 0.000000
vt 0.375000 1.000000
vt 0.375000 0.000000
vt 0.125000 0.750000
s 0
usemtl Material.008
f 57/99/43 61/103/43 63/107/43 59/101/43
f 60/102/44 59/101/44 63/108/44 64/110/44
f 64/111/45 63/109/45 61/104/45 62/106/45
f 62/105/46 58/100/46 60/102/46 64/112/46
f 58/100/47 57/99/47 59/101/47 60/102/47
f 62/106/48 61/104/48 57/99/48 58/100/48
o Cube.008
v 5.457446 1.968700 9.032433
v 5.457446 1.468700 9.032433
v 5.457446 1.968700 10.928274
v 5.457446 1.468700 10.928274
v 1.635690 1.968700 9.032433
v 1.635690 1.468700 9.032433
v 1.635690 1.968700 10.928274
v 1.635690 1.468700 10.928274
vn -0.0000 1.0000 -0.0000
vn -0.0000 -0.0000 1.0000
vn -1.0000 -0.0000 -0.0000
vn -0.0000 -1.0000 -0.0000
vn 1.0000 -0.0000 -0.0000
vn -0.0000 -0.0000 -1.0000
vt 0.625000 0.500000
vt 0.375000 0.500000
vt 0.625000 0.750000
vt 0.375000 0.750000
vt 0.875000 0.500000
vt 0.625000 0.250000
vt 0.125000 0.500000
vt 0.375000 0.250000
vt 0.875000 0.750000
vt 0.625000 1.000000
vt 0.625000 0.000000
vt 0.375000 1.000000
vt 0.375000 0.000000
vt 0.125000 0.750000
s 0
usemtl Material.009
f 65/113/49 69/117/49 71/121/49 67/115/49
f 68/116/50 67/115/50 71/122/50 72/124/50
f 72/125/51 71/123/51 69/118/51 70/120/51
f 70/119/52 66/114/52 68/116/52 72/126/52
f 66/114/53 65/113/53 67/115/53 68/116/53
f 70/120/54 69/118/54 65/113/54 66/114/54
o Cube.009
v 5.088440 8.099966 -11.113844
v 5.088440 7.599966 -11.113844
v 5.088440 8.099966 -9.218002
v 5.088440 7.599966 -9.218002
v 2.790858 8.099966 -11.113844
v 2.790858 7.599966 -11.113844
v 2.790858 8.099966 -9.218002
v 2.790858 7.599966 -9.218002
vn -0.0000 1.0000 -0.0000
vn -0.0000 -0.0000 1.0000
vn -1.0000 -0.0000 -0.0000
vn -0.0000 -1.0000 -0.0000
vn 1.0000 -0.0000 -0.0000
vn -0.0000 -0.0000 -1.0000
vt 0.625000 0.500000
vt 0.375000 0.500000
vt 0.625000 0.750000
vt 0.375000 0.750000
vt 0.875000 0.500000
vt 0.625000 0.250000
vt 0.125000 0.500000
vt 0.375000 0.250000
vt 0.875000 0.750000
vt 0.625000 1.000000
vt 0.625000 0.000000
vt 0.375000 1.000000
vt 0.375000 0.000000
vt 0.125000 0.750000
s 0
usemtl Material.010
f 73/127/55 77/131/55 79/135/55 75/129/55
f 76/130/56 75/129/56 79/136/56 80/138/56
f 80/139/57 79/137/57 77/132/57 78/134/57
f 78/133/58 74/128/58 76/130/58 80/140/58
f 74/128/59 73/127/59 75/129/59 76/130/59
f 78/134/60 77/132/60 73/127/60 74/128/60
o Cube.001
v 5.472875 1.968702 14.343476
v 5.472875 1.468702 14.343476
v 5.472875 1.968702 16.198547
v 5.472875 1.468702 16.198547
v -5.498415 1.968702 14.343476
v -5.498415 1.468702 14.343476
v -5.498415 1.968702 16.198547
v -5.498415 1.468702 16.198547
vn -0.0000 1.0000 -0.0000
vn -0.0000 -0.0000 1.0000
vn -1.0000 -0.0000 -0.0000
vn -0.0000 -1.0000 -0.0000
vn 1.0000 -0.0000 -0.0000
vn -0.0000 -0.0000 -1.0000
vt 0.625000 0.500000
vt 0.375000 0.500000
vt 0.625000 0.750000
vt 0.375000 0.750000
vt 0.875000 0.500000
vt 0.625000 0.250000
vt 0.125000 0.500000
vt 0.375000 0.250000
vt 0.875000 0.750000
vt 0.625000 1.000000
vt 0.625000 0.000000
vt 0.375000 1.000000
vt 0.375000 0.000000
vt 0.125000 0.750000
s 0
usemtl Material.033
f 81/141/61 85/145/61 87/149/61 83/143/61
f 84/144/62 83/143/62 87/150/62 88/152/62
f 88/153/63 87/151/63 85/146/63 86/148/63
f 86/147/64 82/142/64 84/144/64 88/154/64
f 82/142/65 81/141/65 83/143/65 84/144/65
f 86/148/66 85/146/66 81/141/66 82/142/66
o Cube.011
v 5.472875 1.968700 1.545839
v 5.472875 1.468700 1.545839
v 5.472875 1.968700 9.094260
v 5.472875 1.468700 9.094260
v -5.498415 1.968700 1.545839
v -5.498415 1.468700 1.545839
v -5.498415 1.968700 9.094260
v -5.498415 1.468700 9.094260
vn -0.0000 1.0000 -0.0000
vn -0.0000 -0.0000 1.0000
vn -1.0000 -0.0000 -0.0000
vn -0.0000 -1.0000 -0.0000
vn 1.0000 -0.0000 -0.0000
vn -0.0000 -0.0000 -1.0000
vt 0.625000 0.500000
vt 0.375000 0.500000
vt 0.625000 0.750000
vt 0.375000 0.750000
vt 0.875000 0.500000
vt 0.625000 0.250000
vt 0.125000 0.500000
vt 0.375000 0.250000
vt 0.875000 0.750000
vt 0.625000 1.000000
vt 0.625000 0.000000
vt 0.375000 1.000000
vt 0.375000 0.000000
vt 0.125000 0.750000
s 0
usemtl Material.034
f 89/155/67 93/159/67 95/163/67 91/157/67
f 92/158/68 91/157/68 95/164/68 96/166/68
f 96/167/69 95/165/69 93/160/69 94/162/69
f 94/161/70 90/156/70 92/158/70 96/168/70
f 90/156/71 89/155/71 91/157/71 92/158/71
f 94/162/72 93/160/72 89/155/72 90/156/72
o Cube.003
v 1.956964 0.521176 21.626738
v 1.956964 0.021176 21.626738
v 1.956964 0.521176 23.522581
v 1.956964 0.021176 23.522581
v -0.340618 0.521176 21.626738
v -0.340618 0.021176 21.626738
v -0.340618 0.521176 23.522581
v -0.340618 0.021176 23.522581
vn -0.0000 1.0000 -0.0000
vn -0.0000 -0.0000 1.0000
vn -1.0000 -0.0000 -0.0000
vn -0.0000 -1.0000 -0.0000
vn 1.0000 -0.0000 -0.0000
vn -0.0000 -0.0000 -1.0000
vt 0.625000 0.500000
vt 0.375000 0.500000
vt 0.625000 0.750000
vt 0.375000 0.750000
vt 0.875000 0.500000
vt 0.625000 0.250000
vt 0.125000 0.500000
vt 0.375000 0.250000
vt 0.875000 0.750000
vt 0.625000 1.000000
vt 0.625000 0.000000
vt 0.375000 1.000000
vt 0.375000 0.000000
vt 0.125000 0.750000
s 0
usemtl Material.035
f 97/169/73 101/173/73 103/177/73 99/171/73
f 100/172/74 99/171/74 103/178/74 104/180/74
f 104/181/75 103/179/75 101/174/75 102/176/75
f 102/175/76 98/170/76 100/172/76 104/182/76
f 98/170/77 97/169/77 99/171/77 100/172/77
f 102/176/78 101/174/78 97/169/78 98/170/78
o Cube.004
v 1.956964 0.521176 27.329771
v 1.956964 0.021176 27.329771
v 1.956964 0.521176 29.225615
v 1.956964 0.021176 29.225615
v -0.340618 0.521176 27.329771
v -0.340618 0.021176 27.329771
v -0.340618 0.521176 29.225615
v -0.340618 0.021176 29.225615
vn -0.0000 1.0000 -0.0000
vn -0.0000 -0.0000 1.0000
vn -1.0000 -0.0000 -0.0000
vn -0.0000 -1.0000 -0.0000
vn 1.0000 -0.0000 -0.0000
vn -0.0000 -0.0000 -1.0000
vt 0.625000 0.500000
vt 0.375000 0.500000
vt 0.625000 0.750000
vt 0.375000 0.750000
vt 0.875000 0.500000
vt 0.625000 0.250000
vt 0.125000 0.500000
vt 0.375000 0.250000
vt 0.875000 0.750000
vt 0.625000 1.000000
vt 0.625000 0.000000
vt 0.375000 1.000000
vt 0.375000 0.000000
vt 0.125000 0.750000
s 0
usemtl Material.036
f 105/183/79 109/187/79 111/191/79 107/185/79
f 108/186/80 107/185/80 111/192/80 112/194/80
f 112/195/81 111/193/81 109/188/81 110/190/81
f 110/189/82 106/184/82 108/186/82 112/196/82
f 106/184/83 105/183/83 107/185/83 108/186/83
f 110/190/84 109/188/84 105/183/84 106/184/84
o MovingPlat_side_start
v 55.648689 1.883650 -16.608383
v 55.648689 1.383650 -16.608383
v 55.648689 1.883650 -14.712541
v 55.648689 1.383650 -14.712541
v 53.351105 1.883650 -16.608383
v 53.351105 1.383650 -16.608383
v 53.351105 1.883650 -14.712541
v 53.351105 1.383650 -14.712541
vn -0.0000 1.0000 -0.0000
vn -0.0000 -0.0000 1.0000
vn -1.0000 -0.0000 -0.0000
vn -0.0000 -1.0000 -0.0000
vn 1.0000 -0.0000 -0.0000
vn -0.0000 -0.0000 -1.0000
vt 0.625000 0.500000
vt 0.375000 0.500000
vt 0.625000 0.750000
vt 0.375000 0.750000
vt 0.875000 0.500000
vt 0.625000 0.250000
vt 0.125000 0.500000
vt 0.375000 0.250000
vt 0.875000 0.750000
vt 0.625000 1.000000
vt 0.625000 0.000000
vt 0.375000 1.000000
vt 0.375000 0.000000
vt 0.125000 0.750000
s 0
usemtl Material.002
f 113/197/85 117/201/85 119/205/85 115/199/85
f 116/200/86 115/199/86 119/206/86 120/208/86
f 120/209/87 119/207/87 117/202/87 118/204/87
f 118/203/88 114/198/88 116/200/88 120/210/88
f 114/198/89 113/197/89 115/199/89 116/200/89
f 118/204/90 117/202/90 113/197/90 114/198/90
o MovingPlat_side_end
v 64.295929 -145.858978 35.740658
v 64.295929 -146.358978 35.740658
v 64.295929 -145.858978 37.636501
v 64.295929 -146.358978 37.636501
v 61.998348 -145.858978 35.740658
v 61.998348 -146.358978 35.740658
v 61.998348 -145.858978 37.636501
v 61.998348 -146.358978 37.636501
vn -0.0000 1.0000 -0.0000
vn -0.0000 -0.0000 1.0000
vn -1.0000 -0.0000 -0.0000
vn -0.0000 -1.0000 -0.0000
vn 1.0000 -0.0000 -0.0000
vn -0.0000 -0.0000 -1.0000
vt 0.625000 0.500000
vt 0.375000 0.500000
vt 0.625000 0.750000
vt 0.375000 0.750000
vt 0.875000 0.500000
vt 0.625000 0.250000
vt 0.125000 0.500000
vt 0.375000 0.250000
vt 0.875000 0.750000
vt 0.625000 1.000000
vt 0.625000 0.000000
vt 0.375000 1.000000
vt 0.375000 0.000000
vt 0.125000 0.750000
s 0
usemtl Material.037
f 121/211/91 125/215/91 127/219/91 123/213/91
f 124/214/92 123/213/92 127/220/92 128/222/92
f 128/223/93 127/221/93 125/216/93 126/218/93
f 126/217/94 122/212/94 124/214/94 128/224/94
f 122/212/95 121/211/95 123/213/95 124/214/95
f 126/218/96 125/216/96 121/211/96 122/212/96
o MovingPlat_pusher_end
v -42.275867 -4.293576 23.825264
v -42.275867 -8.324841 23.825264
v -42.275867 -4.293576 25.721107
v -42.275867 -8.324841 25.721107
v -44.573452 -4.293576 23.825264
v -44.573452 -8.324841 23.825264
v -44.573452 -4.293576 25.721107
v -44.573452 -8.324841 25.721107
vn -0.0000 1.0000 -0.0000
vn -0.0000 -0.0000 1.0000
vn -1.0000 -0.0000 -0.0000
vn -0.0000 -1.0000 -0.0000
vn 1.0000 -0.0000 -0.0000
vn -0.0000 -0.0000 -1.0000
vt 0.625000 0.500000
vt 0.375000 0.500000
vt 0.625000 0.750000
vt 0.375000 0.750000
vt 0.875000 0.500000
vt 0.625000 0.250000
vt 0.125000 0.500000
vt 0.375000 0.250000
vt 0.875000 0.750000
vt 0.625000 1.000000
vt 0.625000 0.000000
vt 0.375000 1.000000
vt 0.375000 0.000000
vt 0.125000 0.750000
s 0
usemtl Material.012
f 129/225/97 133/229/97 135/233/97 131/227/97
f 132/228/98 131/227/98 135/234/98 136/236/98
f 136/237/99 135/235/99 133/230/99 134/232/99
f 134/231/100 130/226/100 132/228/100 136/238/100
f 130/226/101 129/225/101 131/227/101 132/228/101
f 134/232/102 133/230/102 129/225/102 130/226/102
o MovingPlat_pusher_start
v -41.737339 12.832558 -8.073264
v -41.737339 8.801292 -8.073264
v -41.737339 12.832558 -6.177422
v -41.737339 8.801292 -6.177422
v -44.034924 12.832558 -8.073264
v -44.034924 8.801292 -8.073264
v -44.034924 12.832558 -6.177422
v -44.034924 8.801292 -6.177422
vn -0.0000 1.0000 -0.0000
vn -0.0000 -0.0000 1.0000
vn -1.0000 -0.0000 -0.0000
vn -0.0000 -1.0000 -0.0000
vn 1.0000 -0.0000 -0.0000
vn -0.0000 -0.0000 -1.0000
vt 0.625000 0.500000
vt 0.375000 0.500000
vt 0.625000 0.750000
vt 0.375000 0.750000
vt 0.875000 0.500000
vt 0.625000 0.250000
vt 0.125000 0.500000
vt 0.375000 0.250000
vt 0.875000 0.750000
vt 0.625000 1.000000
vt 0.625000 0.000000
vt 0.375000 1.000000
vt 0.375000 0.000000
vt 0.125000 0.750000
s 0
usemtl Material.013
f 137/239/103 141/243/103 143/247/103 139/241/103
f 140/242/104 139/241/104 143/248/104 144/250/104
f 144/251/105 143/249/105 141/244/105 142/246/105
f 142/245/106 138/240/106 140/242/106 144/252/106
f 138/240/107 137/239/107 139/241/107 140/242/107
f 142/246/108 141/244/108 137/239/108 138/240/108
